<svg width="18" height="18" viewBox="0 0 18 18" fill="none" xmlns="http://www.w3.org/2000/svg">
<path d="M15.7008 8.9998C15.7008 10.7768 14.9949 12.4809 13.7384 13.7374C12.4819 14.9939 10.7777 15.6998 9.00078 15.6998C7.22383 15.6998 5.51966 14.9939 4.26317 13.7374C3.00667 12.4809 2.30078 10.7768 2.30078 8.9998C2.30078 7.22285 3.00667 5.51868 4.26317 4.26219C5.51966 3.0057 7.22383 2.2998 9.00078 2.2998C10.7777 2.2998 12.4819 3.0057 13.7384 4.26219C14.9949 5.51868 15.7008 7.22285 15.7008 8.9998ZM9.99073 13.5898C10.2533 13.3272 10.4008 12.9711 10.4008 12.5998C10.4008 12.2285 10.2533 11.8724 9.99073 11.6099C9.72818 11.3473 9.37208 11.1998 9.00078 11.1998C8.62948 11.1998 8.27338 11.3473 8.01083 11.6099C7.74828 11.8724 7.60078 12.2285 7.60078 12.5998C7.60078 12.9711 7.74828 13.3272 8.01083 13.5898C8.27338 13.8523 8.62948 13.9998 9.00078 13.9998C9.37209 13.9998 9.72818 13.8523 9.99073 13.5898ZM9.00078 3.9998C8.62948 3.9998 8.27338 4.14731 8.01083 4.40986C7.74828 4.67241 7.60078 5.0285 7.60078 5.3998V8.9998C7.60078 9.37111 7.74828 9.7272 8.01083 9.98975C8.27338 10.2523 8.62948 10.3998 9.00078 10.3998C9.37208 10.3998 9.72818 10.2523 9.99073 9.98975C10.2533 9.7272 10.4008 9.37111 10.4008 8.9998V5.3998C10.4008 5.0285 10.2533 4.67241 9.99073 4.40986C9.72818 4.14731 9.37209 3.9998 9.00078 3.9998Z" fill="#E02424" stroke="#E02424"/>
</svg>

