<svg width="20" height="21" viewBox="0 0 20 21" fill="none" xmlns="http://www.w3.org/2000/svg">
<g clip-path="url(#clip0_11987_349)">
<path fill-rule="evenodd" clip-rule="evenodd" d="M4.29279 4.79259C4.48031 4.60512 4.73462 4.49981 4.99979 4.49981C5.26495 4.49981 5.51926 4.60512 5.70679 4.79259L9.99979 9.08559L14.2928 4.79259C14.385 4.69708 14.4954 4.6209 14.6174 4.56849C14.7394 4.51608 14.8706 4.4885 15.0034 4.48734C15.1362 4.48619 15.2678 4.51149 15.3907 4.56177C15.5136 4.61205 15.6253 4.68631 15.7192 4.7802C15.8131 4.87409 15.8873 4.98574 15.9376 5.10864C15.9879 5.23154 16.0132 5.36321 16.012 5.49599C16.0109 5.62877 15.9833 5.75999 15.9309 5.882C15.8785 6.004 15.8023 6.11435 15.7068 6.20659L11.4138 10.4996L15.7068 14.7926C15.8889 14.9812 15.9897 15.2338 15.9875 15.496C15.9852 15.7582 15.88 16.009 15.6946 16.1944C15.5092 16.3798 15.2584 16.485 14.9962 16.4873C14.734 16.4895 14.4814 16.3888 14.2928 16.2066L9.99979 11.9136L5.70679 16.2066C5.51818 16.3888 5.26558 16.4895 5.00339 16.4873C4.74119 16.485 4.49038 16.3798 4.30497 16.1944C4.11956 16.009 4.01439 15.7582 4.01211 15.496C4.00983 15.2338 4.11063 14.9812 4.29279 14.7926L8.58579 10.4996L4.29279 6.20659C4.10532 6.01907 4 5.76476 4 5.49959C4 5.23443 4.10532 4.98012 4.29279 4.79259Z" fill="#046C4E"/>
</g>
<defs>
<clipPath id="clip0_11987_349">
<rect y="0.5" width="20" height="20" rx="6" fill="white"/>
</clipPath>
</defs>
</svg>
