<svg width="20" height="21" viewBox="0 0 20 21" fill="none" xmlns="http://www.w3.org/2000/svg">
<path fill-rule="evenodd" clip-rule="evenodd" d="M4.29279 4.79308C4.48031 4.60561 4.73462 4.50029 4.99979 4.50029C5.26495 4.50029 5.51926 4.60561 5.70679 4.79308L9.99979 9.08608L14.2928 4.79308C14.385 4.69757 14.4954 4.62139 14.6174 4.56898C14.7394 4.51657 14.8706 4.48898 15.0034 4.48783C15.1362 4.48668 15.2678 4.51198 15.3907 4.56226C15.5136 4.61254 15.6253 4.68679 15.7192 4.78069C15.8131 4.87458 15.8873 4.98623 15.9376 5.10913C15.9879 5.23202 16.0132 5.3637 16.012 5.49648C16.0109 5.62926 15.9833 5.76048 15.9309 5.88249C15.8785 6.00449 15.8023 6.11483 15.7068 6.20708L11.4138 10.5001L15.7068 14.7931C15.8889 14.9817 15.9897 15.2343 15.9875 15.4965C15.9852 15.7587 15.88 16.0095 15.6946 16.1949C15.5092 16.3803 15.2584 16.4855 14.9962 16.4878C14.734 16.49 14.4814 16.3892 14.2928 16.2071L9.99979 11.9141L5.70679 16.2071C5.51818 16.3892 5.26558 16.49 5.00339 16.4878C4.74119 16.4855 4.49038 16.3803 4.30497 16.1949C4.11956 16.0095 4.01439 15.7587 4.01211 15.4965C4.00983 15.2343 4.11063 14.9817 4.29279 14.7931L8.58579 10.5001L4.29279 6.20708C4.10532 6.01955 4 5.76525 4 5.50008C4 5.23492 4.10532 4.98061 4.29279 4.79308Z" fill="#C81E1E"/>
</svg>
